<svg width="56" height="56" viewBox="0 0 56 56" fill="none" xmlns="http://www.w3.org/2000/svg">
<circle cx="28" cy="28" r="27.5" stroke="black" stroke-opacity="0.08"/>
<path d="M41.9999 33C41.9908 34.436 41.6395 35.8491 40.9751 37.1222C40.3106 38.3953 39.3522 39.4916 38.1794 40.3202C37.0065 41.1488 35.653 41.6858 34.2311 41.8868C32.8092 42.0877 31.3599 41.9467 30.0034 41.4755C31.3535 40.3637 32.4174 38.9445 33.1061 37.3368C33.7947 35.7292 34.0879 33.9799 33.9612 32.2355C36.2141 30.7733 37.8577 28.541 38.5849 25.9555C39.6489 26.7958 40.5089 27.8661 41.1003 29.0861C41.6917 30.3061 41.9993 31.6442 41.9999 33Z" fill="#666666"/>
<path d="M31.9878 33.2405C31.9491 34.7538 31.5292 36.2329 30.7669 37.5408C30.0045 38.8487 28.9245 39.943 27.6267 40.7224C26.329 41.5018 24.8555 41.9411 23.3428 41.9996C21.8301 42.0581 20.3271 41.7339 18.9731 41.057C17.619 40.3801 16.4577 39.3724 15.5967 38.1273C14.7356 36.8822 14.2028 35.4399 14.0474 33.9341C13.892 32.4283 14.1192 30.9076 14.7078 29.5129C15.2965 28.1183 16.2276 26.8947 17.415 25.9556C17.8362 27.4285 18.559 28.7978 19.5376 29.9765C20.5161 31.1553 21.7291 32.1177 23.0994 32.8027C24.4697 33.4877 25.9674 33.8804 27.4976 33.9557C29.0277 34.0311 30.5568 33.7875 31.9878 33.2405Z" fill="#666666"/>
<path d="M19 23C19 21.22 19.5278 19.4799 20.5168 17.9999C21.5057 16.5198 22.9113 15.3663 24.5558 14.6851C26.2004 14.0039 28.01 13.8257 29.7558 14.1729C31.5016 14.5202 33.1053 15.3774 34.364 16.636C35.6226 17.8947 36.4798 19.4984 36.8271 21.2442C37.1743 22.99 36.9961 24.7996 36.3149 26.4442C35.6337 28.0887 34.4802 29.4943 33.0001 30.4832C31.5201 31.4722 29.78 32 28 32C25.6139 31.9974 23.3262 31.0483 21.639 29.361C19.9517 27.6738 19.0026 25.3861 19 23Z" fill="#666666"/>
</svg>
